# xmcd
#
# Track frame offsets: 
#        150
#        12325
#        23999
#        38693
#        48234
#        61776
#        74548
#        87129
#        96627
#        106849
#        117606
#        126056
#        133159
#        144147
#        153465
#        167251
#        181352
#        189236
#        197694
#        211623
#
# Disc length: 2935 seconds
#
# Revision: 2
# Processed by: cddbd v1.5.2PL0 Copyright (c) Steve Scherf et al.
# Submitted via: ExactAudioCopy v0.99pb1
#
DISCID=0b0b7514
DTITLE=Various Artist - Country Legends [CD 3)
DYEAR=2006
DGENRE=Country
TTITLE0=Waylon Jennings - Don't Think Twice It's Allright
TTITLE1=Freddy Fender - Donna
TTITLE2=Tennesse - Bottle Of Wine
TTITLE3=Don Williams - Endless Sleep
TTITLE4=Burl Ives - Roll Up Some Inspiration
TTITLE5=Johnny Paycheck - I'm Not Looking Back Anymore
TTITLE6=Terry Gibbs - Rockless Lovin'
TTITLE7=Bill Monroe - I Saw The Light
TTITLE8=Gail Davies - I'll Be There If You Ever Want Me
TTITLE9=Waylon Jennings - Lorena
TTITLE10=Johnny Cash - Guess Things Happen That Way
TTITLE11=Jimmy Dean - The Last Letter
TTITLE12=Patsy Cline - Hidin' Out
TTITLE13=Mickey Gilley - Keepin' On
TTITLE14=Kenny Rogers - Loser
TTITLE15=Kenny Rogers - Loser
TTITLE16=Hoyt Axton - I Love To Sing
TTITLE17=Waylon Jennings - Abilene
TTITLE18=Danny Davis - Blue Bayou
TTITLE19=Johnny Cash - I Forgot To Remember To Forget
EXTD=
EXTT0=
EXTT1=
EXTT2=
EXTT3=
EXTT4=
EXTT5=
EXTT6=
EXTT7=
EXTT8=
EXTT9=
EXTT10=
EXTT11=
EXTT12=
EXTT13=
EXTT14=
EXTT15=
EXTT16=
EXTT17=
EXTT18=
EXTT19=
PLAYORDER=
